<mxfile host="app.diagrams.net" modified="2023-08-29T08:16:33.181Z" agent="Mozilla/5.0 (Windows NT 10.0; WOW64) AppleWebKit/537.36 (KHTML, like Gecko) Chrome/102.0.0.0 Safari/537.36" version="21.3.8" etag="AZkSDvuv7Ru2qqSoCoVm" type="github">
  <diagram name="第 1 页" id="moTInGRzc3DYEEmsHRpB">
    <mxGraphModel>
      <root>
        <mxCell id="0" />
        <mxCell id="1" parent="0" />
      </root>
    </mxGraphModel>
  </diagram>
</mxfile>
